PathFileType	4	(X/Y/Z)	Run_400 02
DataRate	CameraRate	NumFrames	NumMarkers	Units	OrigDataRate	OrigDataStartFrame	OrigNumFrames
100	100	7	42	mm	100	172	128
Frame#	Time	RASI			LPSI			RPSI			RTH1			RTH2			RTH3			LTH1			LTH2			LTH3			RTB1			RTB2			RTB3			LTB1			LTB2			LTB3			RCAL			RTOE			RMT5			LCAL			LTOE			LMT5			LACR			RACR			CLAV			C7			RUA1			RUA2			RUA3			RLEL			RMEL			LUA2			LUA3			LLEL			LMEL			RFAsuperior			RFAradius			RFAulna			LFAsuperior			LFAradius			LFAulna			LUA1			LASI			
		X1	Y1	Z1	X2	Y2	Z2	X3	Y3	Z3	X4	Y4	Z4	X5	Y5	Z5	X6	Y6	Z6	X7	Y7	Z7	X8	Y8	Z8	X9	Y9	Z9	X10	Y10	Z10	X11	Y11	Z11	X12	Y12	Z12	X13	Y13	Z13	X14	Y14	Z14	X15	Y15	Z15	X16	Y16	Z16	X17	Y17	Z17	X18	Y18	Z18	X19	Y19	Z19	X20	Y20	Z20	X21	Y21	Z21	X22	Y22	Z22	X23	Y23	Z23	X24	Y24	Z24	X25	Y25	Z25	X26	Y26	Z26	X27	Y27	Z27	X28	Y28	Z28	X29	Y29	Z29	X30	Y30	Z30	X31	Y31	Z31	X32	Y32	Z32	X33	Y33	Z33	X34	Y34	Z34	X35	Y35	Z35	X36	Y36	Z36	X37	Y37	Z37	X38	Y38	Z38	X39	Y39	Z39	X40	Y40	Z40	X41	Y41	Z41	X42	Y42	Z42	

157	2.21	1215.075475	977.33477	-208.058631	1046.648168	1037.311984	-384.665578	1046.259852	1039.741671	-291.60657	1160.855399	807.181459	-153.970497	1192.720871	705.415042	-166.553949	1128.539972	573.118457	-197.889899	1153.208252	828.604289	-522.399219	1277.110903	740.231828	-507.349854	1261.684397	611.815501	-505.10042	1105.871491	314.287293	-288.695991	1016.263009	241.439197	-252.042907	996.522211	180.12274	-321.864779	1178.90109	416.161809	-426.077996	1110.309847	431.83054	-468.367955	1043.374203	388.683746	-415.050028	835.536112	131.321191	-327.445767	1063.134331	68.92964600000001	-341.238076	1039.382023	52.286865	-263.565169	873.2336340000001	452.458037	-392.139079	965.664359	216.370624	-401.395642	929.045471	249.603583	-481.002162	1201.481914	1513.162701	-477.379462	1268.017131	1465.434927	-142.201493	1290.48214	1420.787132	-295.020002	1184.195114	1525.360401	-298.13321	1220.22746	1328.946726	-66.34849199999999	1149.231571	1320.382042	-56.844345	1165.18988	1253.152391	-41.67587	1137.808768	1180.80275	-18.321914	1092.709632	1171.170141	-100.655559	1016.710111	1409.675101	-505.794085	1013.375104	1341.770755	-565.5909789999999	968.692019	1288.858691	-583.76459	949.000809	1273.381844	-495.786424	1223.271906	1192.398044	-46.455208	1354.285085	1219.860228	-145.032442	1359.767895	1152.22346	-121.720967	1030.61539	1223.821105	-591.55445	1176.098251	1135.071059	-541.402451	1132.385406	1082.181951	-565.046322	1097.682734	1436.221232	-543.668607	1214.551666	974.4753930000001	-465.517871	
158	2.22	1215.76065	980.702911	-206.608361	1048.857145	1044.901019	-384.348338	1047.943973	1045.34272	-291.431721	1155.381636	809.9528319999999	-155.366578	1181.795184	706.85824	-168.359816	1107.67358	577.229379	-198.03777	1158.633662	839.504951	-523.42524	1284.008068	755.697184	-505.917924	1273.33525	626.287784	-503.356427	1073.643274	318.278711	-287.258307	981.7103519999999	248.180572	-250.528231	961.304612	185.701759	-319.778474	1203.271812	420.195401	-426.451411	1132.328387	430.583448	-466.851647	1070.464214	379.286835	-414.294703	800.160128	142.992116	-324.729363	1023.674626	68.20954999999999	-341.236861	998.958245	52.736987	-263.867821	894.367827	425.213714	-388.305174	1015.435855	192.282131	-404.333701	971.003727	231.654277	-482.590416	1195.79732	1521.385238	-477.195215	1271.255092	1474.400985	-145.216842	1290.072199	1429.308499	-297.910596	1182.923324	1532.64802	-298.397716	1228.142	1336.860026	-68.64685799999999	1157.837466	1327.461412	-56.067987	1175.450981	1260.329166	-42.403954	1149.839879	1186.924996	-19.201011	1101.620117	1177.919123	-100.31675	1009.153649	1423.302586	-498.415204	1000.573933	1358.268808	-561.24518	954.404183	1306.057506	-578.275086	937.656076	1289.547399	-490.079755	1233.620507	1203.219366	-50.509687	1358.52968	1238.354222	-154.621661	1368.452315	1171.04539	-131.496904	1016.063163	1241.856617	-588.050289	1162.057381	1151.857346	-542.820062	1117.881342	1098.983265	-564.5970119999999	1088.067492	1449.597733	-540.105802	1216.994733	982.368607	-465.049255	
159	2.23	1217.127772	984.890861	-205.300983	1051.793961	1052.793664	-384.026474	1050.056014	1051.050817	-291.186806	1151.222107	813.538683	-157.351298	1171.944633	709.297627	-170.804535	1087.281976	583.447315	-197.712232	1164.361091	850.75611	-524.415385	1290.172558	770.950979	-504.405116	1283.480217	640.621129	-501.732872	1041.673341	324.399802	-284.785794	947.8517409999999	256.778763	-248.391035	927.265057	193.043373	-317.267058	1226.171659	423.880118	-426.044274	1153.844619	428.290166	-465.259036	1097.676418	369.442703	-413.39484	766.812269	156.379201	-321.798003	984.749776	67.595462	-340.987954	958.951778	53.380287	-264.059875	917.782785	396.992122	-385.078161	1064.037697	170.630826	-405.305753	1014.293866	214.0871	-482.619678	1191.035011	1529.782592	-477.062462	1273.949037	1484.130847	-148.259873	1289.590654	1438.587234	-300.533361	1181.407283	1540.151703	-299.112438	1235.621762	1345.726455	-70.84893099999999	1166.485042	1335.313556	-54.596649	1185.667391	1268.277927	-43.033588	1161.49646	1194.24991	-19.636782	1109.585058	1185.892188	-99.036638	1003.211742	1437.48268	-491.437922	989.429278	1375.566727	-556.4791719999999	941.58497	1324.119285	-572.545643	927.838901	1306.584794	-483.897647	1243.056311	1214.814214	-53.95696	1361.224433	1257.009522	-163.073806	1375.366551	1190.181619	-140.904753	1002.755048	1260.230324	-584.257747	1149.315171	1169.084559	-543.5858930000001	1104.734855	1116.237228	-563.759242	1080.257391	1463.067117	-537.098707	1220.184587	990.606882	-464.566841	
160	2.24	1219.172614	989.636958	-204.394107	1055.262236	1060.689172	-383.746541	1052.570236	1057.03109	-290.899556	1148.211306	817.52993	-159.564533	1162.726865	712.647364	-173.448264	1067.810981	591.550133	-196.876461	1170.350486	862.058491	-525.25739	1295.596576	785.655962	-503.033589	1292.148607	654.578877	-500.276592	1010.665955	332.609103	-281.593439	915.534901	266.856013	-245.779336	895.1397459999999	201.811451	-314.232462	1247.899908	426.786915	-424.958786	1175.131636	424.655163	-463.674226	1125.366453	359.347768	-412.183491	736.236725	170.966259	-318.770732	946.746518	67.18189099999999	-340.399644	919.727772	53.865199	-263.84634	943.614595	368.336434	-382.752123	1110.052953	154.942834	-403.45537	1059.020584	197.039484	-480.857639	1187.033106	1538.033425	-476.932619	1276.018654	1494.362071	-151.292373	1289.216102	1448.212615	-303.091959	1179.933931	1547.744052	-300.0326	1242.694904	1355.389663	-72.829825	1175.253127	1343.966286	-52.430319	1195.533369	1276.955672	-43.457564	1172.656701	1202.540413	-19.599076	1116.715819	1194.651576	-96.74858999999999	998.949329	1452.085336	-485.08946	980.229868	1392.986836	-551.333996	930.25311	1342.460822	-566.365763	919.776673	1324.060401	-477.214474	1251.543335	1227.014767	-56.790661	1362.500088	1275.155726	-170.886434	1380.60622	1208.984586	-149.941245	990.532703	1278.307464	-580.186096	1138.373961	1186.507141	-543.7937470000001	1093.279225	1133.735985	-562.347572	1074.059616	1476.262164	-534.654747	1223.893948	998.868886	-463.991568	
161	2.25	1221.818558	994.632728	-204.051568	1059.044246	1068.397821	-383.527503	1055.452218	1063.40964	-290.57743	1145.655154	821.742018	-161.385618	1153.586249	716.952364	-175.798989	1049.431028	601.207127	-195.869564	1176.460143	873.216815	-525.826493	1300.260734	799.375926	-501.931269	1299.251395	667.7207979999999	-498.953794	981.255792	342.856396	-278.330195	885.197819	278.445675	-242.872358	865.365456	211.874762	-310.70525	1268.742017	428.788597	-423.484291	1196.454133	419.653543	-462.118858	1153.71181	349.181711	-410.503107	708.633961	186.853867	-315.437528	909.576658	67.204099	-339.495323	881.265246	54.190442	-263.10621	971.826079	339.501318	-381.378543	1156.723107	144.94883	-398.83099	1105.28536	180.675608	-477.223168	1183.754491	1545.914698	-476.796477	1277.433479	1504.808498	-154.331213	1289.025098	1457.757548	-305.628543	1178.607975	1555.256962	-300.979574	1249.349636	1365.75131	-74.45229399999999	1183.960225	1353.470024	-50.099288	1204.78754	1286.433803	-43.535299	1183.268974	1211.617373	-19.105824	1123.150046	1203.859023	-93.511298	996.2611419999999	1466.809379	-479.531597	972.975718	1409.839162	-546.066176	920.483404	1360.517466	-559.698433	913.28547	1341.517332	-470.091346	1259.247572	1239.590661	-59.182948	1362.610878	1292.291078	-178.557312	1384.376956	1226.896394	-158.68651	979.479022	1295.722083	-575.825886	1129.013088	1203.657641	-543.655699	1083.319571	1151.034777	-560.490195	1069.220069	1489.052523	-532.583509	1227.902835	1006.934234	-463.421518	
162	2.26	1224.930563	999.600489	-204.325678	1062.871512	1075.788503	-383.223457	1058.646757	1070.04253	-290.123912	1142.791914	826.2054869999999	-162.478716	1144.338698	721.969396	-177.770189	1032.289435	612.026109	-195.212206	1182.328667	883.962613	-526.019215	1304.232979	811.594169	-501.00697	1304.636171	679.356994	-497.56993	954.029252	354.996222	-275.611607	857.144638	291.702353	-239.886357	838.200024	223.266426	-306.933959	1288.714286	429.96984	-421.607567	1217.985424	413.380394	-460.54365	1182.561487	339.00464	-408.242444	684.040084	204.3496	-311.664446	873.278803	68.011869	-338.279811	843.664066	54.960029	-261.955982	1002.306829	310.504709	-380.602102	1206.317186	137.626698	-392.238509	1153.045841	165.303589	-471.921537	1181.220366	1553.291451	-476.628099	1278.277973	1515.123123	-157.370719	1288.951635	1466.836563	-307.997277	1177.366692	1562.424065	-301.896674	1255.487521	1376.6243	-75.67232799999999	1192.061937	1363.659417	-48.3948	1213.288912	1296.669577	-43.192633	1193.288985	1221.302743	-18.192399	1128.971483	1213.258138	-89.48671899999999	994.8986599999999	1481.140739	-474.795465	967.3936220000001	1425.572063	-540.98732	912.297566	1377.808257	-552.7935230000001	908.064517	1358.617378	-462.679696	1266.348	1252.105765	-61.287958	1361.868907	1308.12711	-186.036114	1386.915146	1243.440115	-167.156629	969.737149	1312.292669	-571.2233179999999	1120.824716	1220.057053	-543.380978	1074.560324	1167.613411	-558.4522930000001	1065.514498	1501.468891	-530.7380889999999	1231.956302	1014.667413	-462.804098	
163	2.27	1228.302911	1004.275151	-205.095073	1066.457626	1082.697607	-382.596212	1062.066044	1076.550591	-289.364918	1139.531243	830.9186079999999	-163.002845	1135.289097	727.107997	-179.68808	1016.680777	623.504771	-195.295439	1187.416424	893.897669	-525.829358	1307.641777	821.8027959999999	-499.990465	1308.123316	688.7440329999999	-495.769344	929.567095	368.621897	-273.789846	831.90608	306.345953	-237.115046	813.819194	235.862661	-303.30956	1307.569933	430.43055	-419.181539	1239.623054	406.008156	-458.883442	1211.587967	328.840143	-405.434719	662.677641	223.459112	-307.666628	838.23579	69.95482800000001	-336.681324	807.197255	57.071164	-260.673721	1034.986778	281.361582	-379.782397	1257.650284	129.881183	-384.720668	1201.974115	151.368805	-465.426011	1179.390261	1560.080504	-476.417279	1278.723575	1524.927945	-160.392488	1288.879699	1475.152928	-310.065357	1176.139123	1568.936446	-302.828817	1260.958948	1387.657348	-76.617082	1198.899053	1374.175408	-47.840707	1220.972837	1307.427378	-42.4481	1202.625685	1231.340626	-16.896077	1134.180765	1222.614743	-84.90653	994.601376	1494.496861	-470.762927	963.101525	1439.92729	-536.277523	905.563394	1393.972777	-546.021453	904.0201	1375.034159	-455.320615	1272.913701	1264.033498	-63.153463	1360.564991	1322.484805	-192.919102	1388.403392	1258.199577	-175.208166	961.400318	1327.945278	-566.461855	1113.654934	1235.36403	-543.0527059999999	1066.946823	1183.061144	-556.418902	1062.789293	1513.445057	-529.109021	1235.775032	1021.916821	-461.905858	
